<svg width="291" height="39" viewBox="0 0 291 39" fill="none" xmlns="http://www.w3.org/2000/svg">
<path opacity="0.9" d="M20.358 29.7237C18.6999 30.2239 16.7654 30.4512 14.5546 30.4512C12.3438 30.4512 10.3632 30.0875 8.56695 29.3144C6.77065 28.5869 5.25071 27.541 3.96106 26.2678C2.67141 24.9491 1.70418 23.4485 1.0133 21.675C0.368471 19.9016 0 17.9918 0 15.9455C0 13.8992 0.368471 11.9894 1.05935 10.216C1.75024 8.44253 2.76353 6.94193 4.00712 5.6687C5.25071 4.39547 6.77065 3.39507 8.56695 2.66751C10.3172 1.93995 12.2977 1.57617 14.4164 1.57617C16.3048 1.57617 18.009 1.84901 19.575 2.44015C21.141 2.98582 22.5228 3.75885 23.7203 4.75925L23.0755 5.39587C22.5688 4.89567 21.9701 4.48642 21.2792 4.12263C20.5883 3.75885 19.8514 3.44055 19.1144 3.16771C18.3314 2.89488 17.5484 2.71299 16.7654 2.57657C15.9364 2.44015 15.1994 2.39468 14.4164 2.39468C12.3898 2.39468 10.5475 2.75846 8.88936 3.44055C7.23124 4.16811 5.80342 5.12303 4.60589 6.35079C3.40836 7.57855 2.53324 9.03367 1.88841 10.6707C1.24359 12.3077 0.921177 14.0811 0.921177 15.9455C0.921177 17.8099 1.24359 19.5833 1.84235 21.2658C2.48718 22.9483 3.3623 24.4034 4.55983 25.6312C5.75736 26.8589 7.18518 27.8593 8.88936 28.5869C10.5935 29.3144 12.528 29.6782 14.6928 29.6782C16.5812 29.6782 18.2393 29.4963 19.7132 29.0871C21.1871 28.7233 22.5228 28.2231 23.7203 27.6319V16.9004H16.4891V16.1729H24.5494V28.0867C23.444 28.6778 22.0622 29.2235 20.358 29.7237Z" fill="#064168"/>
<path opacity="0.9" d="M30.5369 20.6291C30.5369 21.7205 30.7211 22.7663 31.0436 23.8122C31.366 24.8581 31.8726 25.813 32.5174 26.6315C33.1623 27.45 34.0374 28.1321 35.0507 28.6778C36.064 29.178 37.2615 29.4508 38.6433 29.4508C40.0711 29.4508 41.3147 29.178 42.374 28.6323C43.4795 28.0866 44.4006 27.2681 45.2297 26.2222L45.8745 26.7679C44.9994 27.9047 43.94 28.7687 42.7886 29.3598C41.591 29.951 40.2093 30.2238 38.6893 30.2238C37.3536 30.2238 36.1561 29.9965 35.0507 29.4963C33.9453 28.9961 33.0241 28.3595 32.2411 27.4955C31.4581 26.6315 30.8133 25.6311 30.3987 24.4488C29.9842 23.2665 29.7539 21.9933 29.7539 20.5836C29.7539 19.2649 29.9842 17.9917 30.3987 16.9004C30.8593 15.7636 31.4581 14.8086 32.2411 13.9901C33.0241 13.1716 33.8992 12.535 34.9586 12.0803C36.0179 11.6256 37.1233 11.3982 38.3209 11.3982C39.7487 11.3982 40.9462 11.6256 42.0056 12.1258C43.0649 12.626 43.894 13.2626 44.6309 14.0356C45.3218 14.8541 45.8285 15.7181 46.1969 16.764C46.5193 17.7643 46.7036 18.8102 46.7036 19.8561V20.5836H30.5369V20.6291ZM45.7363 19.9016C45.6903 18.7647 45.5061 17.6734 45.1376 16.7185C44.7691 15.7636 44.2625 14.9451 43.6176 14.263C42.9728 13.5809 42.1898 13.0352 41.2686 12.6714C40.3475 12.3076 39.3342 12.1258 38.2287 12.1258C36.893 12.1258 35.6955 12.3986 34.7743 12.9443C33.8071 13.4899 33.0241 14.172 32.4253 14.9905C31.8266 15.809 31.366 16.6275 31.0896 17.537C30.8133 18.401 30.6751 19.2195 30.6751 19.8561H45.7363V19.9016Z" fill="#064168"/>
<path opacity="0.9" d="M57.8037 29.9963C57.3892 30.0872 56.9747 30.1327 56.6062 30.1327C55.1784 30.1327 54.2112 29.7235 53.6124 28.9504C53.0136 28.1774 52.7373 27.177 52.7373 25.9947V12.6713H48.8223V11.9437H52.6912V6.71436H53.5663V11.8982H58.817V12.6258H53.5663V25.9947C53.5663 27.2225 53.8427 28.0865 54.4414 28.5866C55.0402 29.1323 55.8232 29.3597 56.8365 29.3597C57.5735 29.3597 58.2183 29.2233 58.817 28.9959L58.9552 29.6325C58.5407 29.8599 58.2183 29.9508 57.8037 29.9963Z" fill="#064168"/>
<path opacity="0.9" d="M89.2615 29.6783V3.3497H89.1233L76.9178 29.6783H76.2269L63.9752 3.3497H63.837V29.6783H62.9619V2.39478H64.4819L76.5032 28.4505L88.5246 2.39478H90.0445V29.6783H89.2615Z" fill="#064168"/>
<path opacity="0.9" d="M100.132 35.5441C99.7177 36.6354 99.165 37.4994 98.4741 38.0906C97.7832 38.6817 96.9081 39 95.8027 39C95.5724 39 95.296 38.9545 94.9736 38.9091C94.6512 38.8636 94.4209 38.7726 94.1906 38.7272L94.4209 37.9996C94.5591 38.0451 94.7894 38.0906 95.0657 38.136C95.3421 38.1815 95.6184 38.227 95.8487 38.227C96.4014 38.227 96.862 38.136 97.2765 37.9087C97.6911 37.6813 98.0135 37.4539 98.2898 37.1356C98.5662 36.8173 98.7965 36.4535 99.0268 36.0443C99.211 35.635 99.3953 35.2258 99.5334 34.8165L101.238 30.1783L94.1445 11.9438H95.0657L101.652 29.2234L108.008 11.9438H108.929L100.132 35.5441Z" fill="#064168"/>
<path d="M112.66 2.39478H115.47V14.2176H130.531V2.39478H133.341V29.6783H130.531V16.7641H115.47V29.6783H112.66V2.39478Z" fill="#216C9D"/>
<path d="M156.185 20.1288C156.185 20.3107 156.185 20.4926 156.185 20.72C156.185 20.9473 156.185 21.1292 156.139 21.3566H140.986C141.032 22.266 141.216 23.0845 141.539 23.903C141.861 24.7215 142.368 25.4036 142.967 25.9948C143.565 26.5859 144.256 27.0406 145.085 27.4044C145.914 27.7682 146.743 27.9046 147.711 27.9046C149.092 27.9046 150.29 27.5863 151.303 26.9497C152.317 26.3131 153.053 25.5855 153.606 24.767L155.587 26.3131C154.481 27.6772 153.284 28.6322 151.994 29.2233C150.704 29.8145 149.277 30.1328 147.757 30.1328C146.421 30.1328 145.131 29.9054 143.98 29.4052C142.828 28.9505 141.815 28.2684 140.986 27.4044C140.157 26.5404 139.512 25.54 139.005 24.4032C138.545 23.2664 138.269 21.9932 138.269 20.629C138.269 19.2648 138.499 17.9916 138.959 16.8548C139.42 15.718 140.065 14.7176 140.894 13.8536C141.723 12.9896 142.69 12.353 143.842 11.8528C144.947 11.3981 146.191 11.1252 147.48 11.1252C148.908 11.1252 150.152 11.3526 151.257 11.8528C152.363 12.3075 153.238 12.9896 153.975 13.7627C154.712 14.5812 155.264 15.5361 155.633 16.5819C156.001 17.7188 156.185 18.8556 156.185 20.1288ZM153.514 19.2648C153.422 17.5823 152.869 16.1727 151.856 15.0359C150.843 13.8991 149.369 13.3534 147.48 13.3534C146.605 13.3534 145.776 13.5353 145.039 13.8536C144.302 14.1719 143.611 14.6266 143.059 15.1723C142.506 15.718 142.045 16.3546 141.677 17.0821C141.354 17.8097 141.124 18.5373 141.078 19.3103H153.514V19.2648Z" fill="#216C9D"/>
<path d="M172.444 17.9915C172.444 16.4455 172.03 15.2632 171.201 14.4902C170.372 13.7171 169.174 13.3533 167.562 13.3533C166.457 13.3533 165.443 13.5352 164.522 13.9445C163.601 14.3083 162.772 14.8539 162.127 15.4905L160.653 13.7626C161.39 13.035 162.404 12.3984 163.647 11.8982C164.891 11.398 166.272 11.1707 167.838 11.1707C168.806 11.1707 169.773 11.3071 170.602 11.5799C171.477 11.8527 172.214 12.262 172.859 12.8077C173.504 13.3533 174.01 14.0354 174.379 14.8539C174.747 15.6724 174.932 16.6274 174.932 17.7642V25.6764C174.932 26.3585 174.978 27.086 175.024 27.8136C175.07 28.5412 175.162 29.1778 175.254 29.7235H172.859C172.767 29.2687 172.721 28.814 172.675 28.3138C172.629 27.8136 172.583 27.3134 172.583 26.8132H172.49C171.661 28.041 170.694 28.905 169.681 29.4051C168.621 29.9508 167.378 30.1782 165.858 30.1782C165.167 30.1782 164.43 30.0872 163.693 29.9053C162.956 29.7235 162.265 29.4051 161.667 28.9504C161.068 28.4957 160.561 27.95 160.147 27.2679C159.732 26.5859 159.548 25.7219 159.548 24.7215C159.548 23.3118 159.916 22.2205 160.607 21.402C161.344 20.5835 162.265 19.9923 163.463 19.5831C164.66 19.1738 166.042 18.9465 167.562 18.81C169.128 18.6736 170.74 18.6282 172.398 18.6282V17.9915H172.444ZM171.661 20.6289C170.556 20.6289 169.451 20.6744 168.345 20.7654C167.24 20.8563 166.226 21.0382 165.351 21.311C164.43 21.5839 163.739 21.9931 163.14 22.4933C162.588 22.9935 162.265 23.6756 162.265 24.5396C162.265 25.1762 162.404 25.7219 162.634 26.1766C162.864 26.6313 163.233 26.9496 163.647 27.2225C164.062 27.4953 164.522 27.6772 165.029 27.8136C165.536 27.95 166.042 27.9955 166.549 27.9955C167.47 27.9955 168.299 27.8136 169.036 27.4953C169.773 27.177 170.372 26.7223 170.878 26.1766C171.385 25.6309 171.753 24.9943 172.03 24.2668C172.306 23.5392 172.398 22.8116 172.398 21.9931V20.6289H171.661Z" fill="#216C9D"/>
<path d="M183.544 29.6782H180.873V0.530273H183.544V29.6782Z" fill="#216C9D"/>
<path d="M197.915 13.8083H192.757V24.3125C192.757 24.9946 192.803 25.5402 192.941 25.9495C193.079 26.4042 193.263 26.7225 193.494 26.9499C193.724 27.1772 194.046 27.3591 194.369 27.4501C194.691 27.541 195.06 27.5865 195.474 27.5865C195.843 27.5865 196.211 27.541 196.626 27.4501C197.04 27.3591 197.409 27.2227 197.777 27.0408L197.915 29.3145C197.455 29.4963 196.948 29.6328 196.442 29.7237C195.935 29.8147 195.382 29.8601 194.783 29.8601C194.277 29.8601 193.77 29.8147 193.217 29.6782C192.665 29.5418 192.158 29.3145 191.697 28.9507C191.237 28.5869 190.822 28.0867 190.546 27.4956C190.224 26.8589 190.085 26.0859 190.085 25.0855V13.8083H186.309V11.6256H190.085V6.53271H192.757V11.6256H197.915V13.8083Z" fill="#216C9D"/>
<path d="M203.856 14.5813C204.363 13.5354 205.192 12.6714 206.297 12.0803C207.449 11.4437 208.646 11.1708 209.982 11.1708C212.285 11.1708 214.035 11.8529 215.187 13.2171C216.338 14.5813 216.937 16.4002 216.937 18.6283V29.6782H214.265V19.6742C214.265 18.7193 214.173 17.8553 214.035 17.0823C213.897 16.3092 213.621 15.6726 213.252 15.0815C212.884 14.5358 212.377 14.0811 211.732 13.8083C211.087 13.5354 210.304 13.3535 209.337 13.3535C208.646 13.3535 207.955 13.4899 207.311 13.7628C206.666 14.0356 206.067 14.4903 205.514 15.036C205.008 15.6272 204.593 16.3547 204.271 17.2187C203.948 18.0827 203.81 19.174 203.81 20.3563V29.5872H201.139V0.530273H203.81V14.5813H203.856Z" fill="#216C9D"/>
<path d="M236.006 15.7634C235.545 15.0814 234.9 14.4902 234.071 14.0355C233.242 13.5808 232.321 13.3534 231.308 13.3534C230.249 13.3534 229.281 13.5353 228.406 13.8991C227.531 14.2628 226.794 14.763 226.195 15.4451C225.597 16.0818 225.136 16.8548 224.768 17.7642C224.445 18.6282 224.261 19.6286 224.261 20.629C224.261 21.6749 224.445 22.6298 224.768 23.4938C225.09 24.3578 225.551 25.1308 226.149 25.7674C226.748 26.404 227.485 26.9497 228.314 27.3135C229.189 27.6772 230.156 27.8591 231.216 27.8591C232.367 27.8591 233.381 27.6318 234.164 27.2225C234.993 26.7678 235.637 26.2221 236.144 25.54L238.125 26.9952C237.342 27.9501 236.374 28.7231 235.269 29.2688C234.117 29.8145 232.782 30.1328 231.17 30.1328C229.696 30.1328 228.36 29.9054 227.163 29.4052C225.965 28.9505 224.952 28.2684 224.077 27.4044C223.248 26.5404 222.557 25.54 222.096 24.4032C221.636 23.2664 221.405 21.9932 221.405 20.629C221.405 19.2648 221.636 17.9916 222.096 16.8548C222.557 15.718 223.202 14.7176 224.077 13.8536C224.906 12.9896 225.965 12.353 227.163 11.8528C228.36 11.3981 229.696 11.1252 231.17 11.1252C232.413 11.1252 233.657 11.3981 234.9 11.8983C236.144 12.4439 237.203 13.217 237.986 14.2174L236.006 15.7634Z" fill="#216C9D"/>
<path d="M252.909 17.9915C252.909 16.4455 252.495 15.2632 251.666 14.4902C250.837 13.7171 249.639 13.3533 248.027 13.3533C246.922 13.3533 245.908 13.5352 244.987 13.9445C244.066 14.3083 243.237 14.8539 242.592 15.4905L241.118 13.7626C241.855 13.035 242.868 12.3984 244.112 11.8982C245.356 11.398 246.737 11.1707 248.303 11.1707C249.271 11.1707 250.238 11.3071 251.067 11.5799C251.942 11.8527 252.679 12.262 253.324 12.8077C253.969 13.3533 254.475 14.0354 254.844 14.8539C255.212 15.6724 255.396 16.6274 255.396 17.7642V25.6764C255.396 26.3585 255.442 27.086 255.489 27.8136C255.535 28.5412 255.627 29.1778 255.719 29.7235H253.324C253.232 29.2687 253.186 28.814 253.139 28.3138C253.093 27.8136 253.047 27.3134 253.047 26.8132H252.955C252.126 28.041 251.159 28.905 250.146 29.4051C249.086 29.9508 247.843 30.1782 246.323 30.1782C245.632 30.1782 244.895 30.0872 244.158 29.9053C243.421 29.7235 242.73 29.4051 242.131 28.9504C241.533 28.4957 241.026 27.95 240.611 27.2679C240.197 26.5859 240.013 25.7219 240.013 24.7215C240.013 23.3118 240.381 22.2205 241.072 21.402C241.809 20.5835 242.73 19.9923 243.928 19.5831C245.125 19.1738 246.507 18.9465 248.027 18.81C249.593 18.6736 251.205 18.6282 252.863 18.6282V17.9915H252.909ZM252.126 20.6289C251.021 20.6289 249.915 20.6744 248.81 20.7654C247.705 20.8563 246.691 21.0382 245.816 21.311C244.895 21.5839 244.204 21.9931 243.605 22.4933C243.053 22.9935 242.73 23.6756 242.73 24.5396C242.73 25.1762 242.868 25.7219 243.099 26.1766C243.329 26.6313 243.697 26.9496 244.112 27.2225C244.526 27.4953 244.987 27.6772 245.494 27.8136C246 27.95 246.507 27.9955 247.014 27.9955C247.935 27.9955 248.764 27.8136 249.501 27.4953C250.238 27.177 250.837 26.7223 251.343 26.1766C251.85 25.6309 252.218 24.9943 252.495 24.2668C252.771 23.5392 252.863 22.8116 252.863 21.9931V20.6289H252.126Z" fill="#216C9D"/>
<path d="M261.246 13.7171C261.2 12.9441 261.2 12.262 261.107 11.6254H263.641C263.687 12.1256 263.733 12.6712 263.779 13.2624C263.825 13.8535 263.825 14.3537 263.825 14.7175H263.917C264.424 13.6716 265.207 12.8077 266.266 12.1711C267.325 11.5344 268.477 11.1707 269.766 11.1707C270.089 11.1707 270.411 11.1707 270.688 11.2161C270.964 11.2616 271.24 11.3071 271.517 11.3525L271.148 13.8535C271.01 13.8081 270.734 13.7626 270.365 13.7171C269.997 13.6716 269.628 13.6262 269.26 13.6262C268.569 13.6262 267.878 13.7626 267.233 13.99C266.588 14.2628 266.036 14.672 265.529 15.2177C265.068 15.7634 264.654 16.4909 264.378 17.3549C264.101 18.2189 263.917 19.2648 263.917 20.4471V29.678H261.246V15.5815C261.246 15.1268 261.246 14.4902 261.246 13.7171Z" fill="#216C9D"/>
<path d="M291 20.1288C291 20.3107 291 20.4926 291 20.72C291 20.9473 291 21.1292 290.954 21.3566H275.8C275.847 22.266 276.031 23.0845 276.353 23.903C276.676 24.7215 277.182 25.4036 277.781 25.9948C278.38 26.5859 279.071 27.0406 279.9 27.4044C280.729 27.7682 281.558 27.9046 282.525 27.9046C283.907 27.9046 285.104 27.5863 286.118 26.9497C287.131 26.3131 287.868 25.5855 288.421 24.767L290.401 26.3131C289.296 27.6772 288.098 28.6322 286.809 29.2233C285.473 29.8145 284.091 30.1328 282.571 30.1328C281.235 30.1328 279.946 29.9054 278.794 29.4052C277.643 28.9505 276.63 28.2684 275.8 27.4044C274.971 26.5404 274.327 25.54 273.82 24.4032C273.359 23.2664 273.083 21.9932 273.083 20.629C273.083 19.2648 273.313 17.9916 273.774 16.8548C274.234 15.718 274.879 14.7176 275.708 13.8536C276.537 12.9896 277.505 12.353 278.656 11.8528C279.762 11.3981 281.005 11.1252 282.295 11.1252C283.723 11.1252 284.966 11.3526 286.072 11.8528C287.177 12.3075 288.098 12.9896 288.789 13.7627C289.48 14.5357 290.079 15.5361 290.447 16.5819C290.77 17.7188 291 18.8556 291 20.1288ZM288.282 19.2648C288.19 17.5823 287.638 16.1727 286.624 15.0359C285.611 13.8991 284.137 13.3534 282.249 13.3534C281.374 13.3534 280.545 13.5353 279.808 13.8536C279.071 14.1719 278.38 14.6266 277.827 15.1723C277.274 15.718 276.814 16.3546 276.445 17.0821C276.123 17.8097 275.893 18.5373 275.847 19.3103H288.282V19.2648Z" fill="#216C9D"/>
</svg>
