<svg xmlns="http://www.w3.org/2000/svg" xmlns:xlink="http://www.w3.org/1999/xlink" width="250" height="30" viewBox="0 0 250 30">
  <defs>
    <clipPath id="clip-Artboard_1">
      <rect width="250" height="30"/>
    </clipPath>
  </defs>
  <g id="Artboard_1" data-name="Artboard – 1" clip-path="url(#clip-Artboard_1)">
    <rect width="250" height="30" fill="#fff"/>
    <g id="Group_355" data-name="Group 355" transform="translate(-2.5 -2.5)">
      <g id="Group_351" data-name="Group 351">
        <g id="Group_350" data-name="Group 350">
          <path id="Path_403" data-name="Path 403" d="M31.485,13.673H26.173A12.322,12.322,0,0,0,13.8,25.944v5.269A1.292,1.292,0,0,0,15.1,32.5h5.088a1.292,1.292,0,0,0,1.3-1.287V25.944a4.671,4.671,0,0,1,4.69-4.651h5.312a1.292,1.292,0,0,0,1.3-1.287V14.96A1.292,1.292,0,0,0,31.485,13.673Z" fill="#f6a04f"/>
          <path id="Path_404" data-name="Path 404" d="M3.8,13.673H9.111A12.322,12.322,0,0,1,21.483,25.944v5.269a1.292,1.292,0,0,1-1.3,1.287H15.1a1.292,1.292,0,0,1-1.3-1.287V25.944a4.67,4.67,0,0,0-4.689-4.651H3.8a1.292,1.292,0,0,1-1.3-1.287V14.96A1.292,1.292,0,0,1,3.8,13.673Z" fill="#abcee3"/>
        </g>
        <rect id="Rectangle_162" data-name="Rectangle 162" width="7.62" height="7.684" rx="0.833" transform="translate(13.8 10.12) rotate(-90)" fill="#043554"/>
      </g>
      <g id="Group_354" data-name="Group 354">
        <g id="Group_352" data-name="Group 352">
          <path id="Path_405" data-name="Path 405" d="M61.917,19.8c0,4.3-3.308,7.885-8.668,7.885A9.086,9.086,0,0,1,43.812,18.5a9.06,9.06,0,0,1,9.334-9.182,8.864,8.864,0,0,1,7.72,4.3l-1.206.712a7.308,7.308,0,0,0-6.514-3.713A7.725,7.725,0,0,0,45.171,18.5a7.751,7.751,0,0,0,8.078,7.884c4.359,0,7-2.669,7.283-6H52.916V19.108h9Z" fill="#043554"/>
          <path id="Path_406" data-name="Path 406" d="M77.172,21.093c0,.2-.026.406-.026.61H65.529a5.2,5.2,0,0,0,5.437,4.756A4.887,4.887,0,0,0,75.4,24.144l1.128.661a6.331,6.331,0,0,1-5.59,2.875,6.453,6.453,0,0,1-6.745-6.638,6.491,6.491,0,1,1,12.977.051Zm-11.643-.636H75.838a4.961,4.961,0,0,0-5-4.834A5.152,5.152,0,0,0,65.529,20.457Z" fill="#043554"/>
          <path id="Path_407" data-name="Path 407" d="M82.528,15.929v8.266c0,2.238,1.206,2.289,3.821,2.06V27.4c-3.36.508-5.129-.306-5.129-3.2V15.929H78.4V14.683H81.22V11.5l1.308-.382v3.561h3.821v1.246Z" fill="#043554"/>
          <path id="Path_408" data-name="Path 408" d="M105.914,27.4h-1.359V11.579L97.914,22.517h-.232L91.04,11.579V27.4H89.681V9.6h1.692l6.412,10.53L104.2,9.6h1.718Z" fill="#043554"/>
          <path id="Path_409" data-name="Path 409" d="M120.887,14.683l-5.54,13.887c-.974,2.442-2.872,4.1-5.077,3.917v-1.2c1.718.153,3.025-1.118,3.821-2.975l.282-.687-5.9-12.946h1.385L115.039,26,119.5,14.683Z" fill="#043554"/>
        </g>
        <g id="Group_353" data-name="Group 353">
          <path id="Path_410" data-name="Path 410" d="M134.8,17.17h-9.554V9.158h-2.242V27.838h2.242V19.317H134.8v8.521h2.242V9.158H134.8Z" fill="#f6a04f"/>
          <path id="Path_411" data-name="Path 411" d="M146.576,13.965a6.849,6.849,0,0,0-7.084,7.077,6.9,6.9,0,0,0,7.187,7.076,6.739,6.739,0,0,0,5.969-3.087l.23-.378-1.906-1.116-.218.4a4.459,4.459,0,0,1-4.049,2.087,4.777,4.777,0,0,1-4.924-3.88h11.546V21.7c0-.093.006-.186.012-.279.007-.111.014-.221.014-.331C153.353,17.637,150.978,13.965,146.576,13.965Zm-4.805,6.054a4.668,4.668,0,0,1,4.805-3.958,4.484,4.484,0,0,1,4.5,3.958Z" fill="#f6a04f"/>
          <path id="Path_412" data-name="Path 412" d="M166.75,16.177a6.624,6.624,0,0,0-5.072-2.212,7.077,7.077,0,1,0,0,14.153,6.626,6.626,0,0,0,5.072-2.212v1.932h2.191V14.246H166.75Zm0,4.865a4.982,4.982,0,1,1-4.97-4.981A4.922,4.922,0,0,1,166.75,21.042Z" fill="#f6a04f"/>
          <rect id="Rectangle_163" data-name="Rectangle 163" width="2.166" height="19.443" transform="translate(172.003 8.395)" fill="#f6a04f"/>
          <path id="Path_413" data-name="Path 413" d="M180.861,10.537l-2.191.64v3.069h-2.821v2.121h2.821v7.828a3.655,3.655,0,0,0,1.106,2.964,4.116,4.116,0,0,0,2.773.822,11.892,11.892,0,0,0,1.758-.148l.375-.057v-2l-.481.042c-1.389.123-2.489.181-2.954-.241a1.819,1.819,0,0,1-.386-1.382V16.367h3.821V14.246h-3.821Z" fill="#f6a04f"/>
          <path id="Path_414" data-name="Path 414" d="M193.189,13.965a5.356,5.356,0,0,0-4.149,1.715V9.158h-2.166v18.68h2.166V20.685c0-2.895,1.512-4.624,4.046-4.624a3.076,3.076,0,0,1,3.328,3.429v8.348h2.192V19.49C198.606,16.134,196.479,13.965,193.189,13.965Z" fill="#f6a04f"/>
          <path id="Path_415" data-name="Path 415" d="M211.875,23.607a4.676,4.676,0,0,1-4.225,2.414,4.98,4.98,0,1,1,0-9.96,4.415,4.415,0,0,1,4.137,2.391l.2.439,1.818-1.055-.168-.361a6.415,6.415,0,0,0-5.991-3.51,7.077,7.077,0,1,0,0,14.153,6.754,6.754,0,0,0,6.084-3.466l.192-.367L212.093,23.2Z" fill="#f6a04f"/>
          <path id="Path_416" data-name="Path 416" d="M226.874,16.176a6.625,6.625,0,0,0-5.072-2.211,7.077,7.077,0,1,0,0,14.153,6.624,6.624,0,0,0,5.072-2.212v1.932h2.192V14.246h-2.192Zm0,4.866a4.982,4.982,0,1,1-4.969-4.981A4.922,4.922,0,0,1,226.874,21.042Z" fill="#f6a04f"/>
          <path id="Path_417" data-name="Path 417" d="M234.294,15.643v-1.4h-2.166V27.838h2.166V20.329c0-3.071,1.984-4.165,3.841-4.165h.442v-2.1h-.442A4.885,4.885,0,0,0,234.294,15.643Z" fill="#f6a04f"/>
          <path id="Path_418" data-name="Path 418" d="M245.724,13.965a6.848,6.848,0,0,0-7.084,7.077,6.9,6.9,0,0,0,7.186,7.076,6.738,6.738,0,0,0,5.969-3.087l.23-.378-1.9-1.116-.219.4a4.459,4.459,0,0,1-4.049,2.087,4.778,4.778,0,0,1-4.924-3.88h11.546V21.7c0-.093.006-.186.012-.279.007-.111.014-.221.014-.331C252.5,17.637,250.125,13.965,245.724,13.965Zm-4.8,6.054a4.668,4.668,0,0,1,4.8-3.958,4.484,4.484,0,0,1,4.5,3.958Z" fill="#f6a04f"/>
        </g>
      </g>
    </g>
  </g>
</svg>
