<svg width="80" height="79" viewBox="0 0 80 79" fill="none" xmlns="http://www.w3.org/2000/svg">
<path d="M73.6391 42.8C73.6391 43.8 72.8391 44.6 71.8391 44.6H7.83906C6.83906 44.6 6.03906 43.8 6.03906 42.8V1.8C6.03906 0.8 6.83906 0 7.83906 0H71.9391C72.9391 0 73.7391 0.8 73.7391 1.8V42.8H73.6391Z" fill="#515E67"/>
<path d="M69.9383 40.4999C69.9383 41.3999 69.2383 42.0999 68.3383 42.0999H11.3383C10.4383 42.0999 9.73828 41.3999 9.73828 40.4999V3.9999C9.73828 3.0999 10.4383 2.3999 11.3383 2.3999H68.4383C69.2383 2.3999 69.9383 3.0999 69.9383 3.9999V40.4999Z" fill="#F4F7F8"/>
<path d="M79.7388 76.8998C79.9388 77.6998 79.3388 78.3998 78.5388 78.3998H1.23876C0.438763 78.3998 -0.161237 77.6998 0.038763 76.8998L5.83876 46.7998C6.03876 45.9998 6.83876 45.2998 7.63876 45.2998H72.2388C73.0388 45.2998 73.9388 45.9998 74.0388 46.7998L79.7388 76.8998Z" fill="#515E67"/>
<path d="M76.8389 75.6002C76.8389 76.1002 76.4389 76.5002 75.9389 76.5002H3.73887C3.23887 76.5002 2.83887 76.1002 2.83887 75.6002C2.83887 75.1002 3.23887 74.7002 3.73887 74.7002H75.9389C76.4389 74.8002 76.8389 75.2002 76.8389 75.6002Z" fill="#F4F7F8"/>
<path d="M50.2385 71.3C50.2385 72.3 49.4385 73.1 48.4385 73.1H31.2385C30.2385 73.1 29.4385 72.3 29.4385 71.3C29.4385 70.3 30.2385 69.5 31.2385 69.5H48.3385C49.4385 69.5 50.2385 70.3 50.2385 71.3Z" fill="#F4F7F8"/>
<path d="M34.3383 36.6999L30.3383 17.6999L27.7383 24.5999H15.7383V22.3999H26.6383L30.7383 11.1999L34.4383 28.3999L37.3383 15.1999L40.6383 25.3999L45.7383 8.8999L49.0383 22.3999H63.9383V24.5999H47.7383L45.5383 15.5999L40.6383 31.3999L37.6383 21.9999L34.3383 36.6999Z" fill="#515E67"/>
</svg>
