<svg width="77" height="69" viewBox="0 0 77 69" fill="none" xmlns="http://www.w3.org/2000/svg">
<path d="M46.2002 21.5H30.2002C26.3002 21.5 23.2002 18.4 23.2002 14.5V7C23.2002 3.1 26.3002 0 30.2002 0H46.2002C50.1002 0 53.2002 3.1 53.2002 7V14.5C53.2002 18.4 50.1002 21.5 46.2002 21.5ZM30.2002 4C28.5002 4 27.2002 5.3 27.2002 7V14.5C27.2002 16.2 28.5002 17.5 30.2002 17.5H46.2002C47.9002 17.5 49.2002 16.2 49.2002 14.5V7C49.2002 5.3 47.9002 4 46.2002 4H30.2002Z" fill="#C5D0D8"/>
<path d="M76.5 63.5C76.5 66.3 74.3 68.5 71.5 68.5H5C2.2 68.5 0 66.3 0 63.5V18C0 15.2 2.2 13 5 13H71.5C74.3 13 76.5 15.2 76.5 18V63.5Z" fill="#515E67"/>
<path d="M54 34.2H44.8V25H31.8V34.2H22.5V47.2H31.8V56.5H44.8V47.2H54V34.2Z" fill="white"/>
</svg>
