<svg width="74" height="62" viewBox="0 0 74 62" fill="none" xmlns="http://www.w3.org/2000/svg">
<g clip-path="url(#clip0)">
<path d="M18.6998 61.9C12.0998 61.9 6.39984 59.1 3.09984 54.3C-0.000163317 50 -0.800163 44.5 0.799837 38.8C2.29984 33.3 5.89984 28.3 10.9998 24.8L39.6998 4.8C44.0998 1.7 49.2998 0 54.3998 0C60.9998 0 66.6998 2.8 69.9998 7.6C72.9998 11.9 73.7998 17.4 72.2998 23.1C70.7998 28.6 67.1998 33.6 62.0998 37.1L33.3998 57.1C28.9998 60.2 23.7998 61.9 18.6998 61.9ZM54.3998 2.9C49.8998 2.9 45.2998 4.4 41.2998 7.2L12.5998 27.2C8.09984 30.3 4.89984 34.7 3.59984 39.6C2.29984 44.4 2.99984 49 5.49984 52.6C8.29984 56.6 13.0998 58.9 18.7998 58.9C23.2998 58.9 27.8998 57.4 31.8998 54.6L60.5998 34.6C65.0998 31.5 68.2998 27.1 69.5998 22.2C70.8998 17.4 70.1998 12.8 67.6998 9.2C64.7998 5.2 59.9998 2.9 54.3998 2.9Z" fill="#515E67"/>
<path d="M14.7003 30.2002C7.20027 35.4002 4.40027 44.7002 8.40027 50.5002C12.5003 56.3002 22.2003 56.9002 29.7003 51.7002L44.1003 41.7002L29.0003 20.2002L14.7003 30.2002Z" fill="#515E67"/>
<path d="M54.4 8.8001C58.1 8.8001 61.2 10.2001 62.9 12.6001C64.5 14.9001 64.8 17.9001 63.8 21.1001C62.8 24.5001 60.4 27.7001 57.2 29.9001L44.6 38.7001L32.1 20.7001L44.6 12.0001C47.6 9.9001 51 8.8001 54.4 8.8001ZM54.4 6.6001C50.8 6.6001 46.8 7.8001 43.4 10.2001L29 20.2001L44 41.7001L58.4 31.7001C65.9 26.5001 68.7 17.2001 64.6 11.3001C62.5 8.2001 58.6 6.6001 54.4 6.6001Z" fill="#515E67"/>
</g>
<defs>
<clipPath id="clip0">
<rect width="73.1" height="61.9" fill="white"/>
</clipPath>
</defs>
</svg>
