<svg width="16" height="16" viewBox="0 0 16 16" fill="none" xmlns="http://www.w3.org/2000/svg">
<path d="M9 12C9 12.6 8.6 13 8 13C7.4 13 7 12.6 7 12C7 11.4 7.4 11 8 11C8.6 11 9 11.4 9 12Z" fill="#879EAD"/>
<path d="M8 0C3.6 0 0 3.6 0 8C0 12.4 3.6 16 8 16C12.4 16 16 12.4 16 8C16 3.6 12.4 0 8 0ZM8 14.5C4.4 14.5 1.5 11.6 1.5 8C1.5 4.4 4.4 1.5 8 1.5C11.6 1.5 14.5 4.4 14.5 8C14.5 11.6 11.6 14.5 8 14.5Z" fill="#879EAD"/>
<path d="M7.99999 10.0001C7.59999 10.0001 7.19999 9.7001 7.19999 9.2001V8.8001C7.19999 8.3001 7.39999 7.8001 7.79999 7.4001C8.09999 7.1001 8.49999 6.9001 8.79999 6.7001C9.49999 6.3001 9.79999 6.0001 9.79999 5.6001C9.79999 5.1001 9.49999 4.8001 9.29999 4.7001C8.99999 4.3001 8.49999 4.1001 7.99999 4.1001C7.19999 4.1001 6.39999 4.6001 6.19999 5.4001C6.09999 5.9001 5.69999 6.1001 5.29999 6.0001C4.89999 5.9001 4.59999 5.4001 4.79999 5.0001C4.99999 4.3001 5.39999 3.7001 5.99999 3.3001C6.59999 2.9001 7.29999 2.6001 7.99999 2.6001C8.89999 2.6001 9.69999 2.9001 10.3 3.4001C11 3.9001 11.4 4.7001 11.4 5.5001C11.4 6.8001 10.4 7.4001 9.69999 7.9001C8.99999 8.3001 8.69999 8.5001 8.69999 8.8001V9.3001C8.69999 9.7001 8.39999 10.0001 7.99999 10.0001Z" fill="#879EAD"/>
</svg>
